<svg xmlns="http://www.w3.org/2000/svg" xmlns:xlink="http://www.w3.org/1999/xlink" viewBox="0 0 1100 200"><defs><style>.cls-1{fill:#243a74;}.cls-2{isolation:isolate;}.cls-3{fill:#eb7436;}.cls-4{fill:url(#linear-gradient);}.cls-5{fill:url(#linear-gradient-2);}.cls-6{fill:url(#linear-gradient-3);}.cls-7{opacity:0.2;}.cls-8{opacity:0.7;}</style><linearGradient id="linear-gradient" x1="91.03" y1="137.01" x2="147.75" y2="89.42" gradientUnits="userSpaceOnUse"><stop offset="0" stop-color="#ee743b"/><stop offset="1" stop-color="#f7d21e"/></linearGradient><linearGradient id="linear-gradient-2" x1="43.85" y1="104.81" x2="200" y2="104.81" gradientUnits="userSpaceOnUse"><stop offset="0" stop-color="#007bc1"/><stop offset="1" stop-color="#09f"/></linearGradient><linearGradient id="linear-gradient-3" x1="16.25" y1="166.54" x2="179.81" y2="29.29" gradientUnits="userSpaceOnUse"><stop offset="0" stop-color="#017cc1"/><stop offset="1" stop-color="#09f"/></linearGradient></defs><g id="Layer_2" data-name="Layer 2"><g id="Layer_1-2" data-name="Layer 1"><path class="cls-1" d="M444.65,35.21h-22.2V20H484V35.21H461.79V99.53H444.65Z"/><path class="cls-1" d="M536.18,89.46a26.47,26.47,0,0,1-10,7.8A30.15,30.15,0,0,1,513.65,100a33.83,33.83,0,0,1-11.59-2,27.92,27.92,0,0,1-9.45-5.66,26.47,26.47,0,0,1-6.32-8.84A27.9,27.9,0,0,1,484,72a27.93,27.93,0,0,1,2.31-11.53,26.57,26.57,0,0,1,6.32-8.84A27.9,27.9,0,0,1,502.06,46a33.6,33.6,0,0,1,11.59-2A26.31,26.31,0,0,1,524,46,21.71,21.71,0,0,1,532,51.63a26,26,0,0,1,5,8.84A35.69,35.69,0,0,1,538.7,72v5.16H500.47a12.93,12.93,0,0,0,4.28,7.52,12.1,12.1,0,0,0,8.13,2.8,12.38,12.38,0,0,0,6.87-1.81A18.3,18.3,0,0,0,524.64,81Zm-14-23.5a9.54,9.54,0,0,0-2.75-7.14,9.79,9.79,0,0,0-7.36-3,12.28,12.28,0,0,0-4.83.88A12.14,12.14,0,0,0,503.71,59a9.81,9.81,0,0,0-2.31,3.19,10.35,10.35,0,0,0-.93,3.78Z"/><path class="cls-1" d="M586.5,62.56a9.19,9.19,0,0,0-3.41-2.91,10,10,0,0,0-4.72-1.16q-6.25,0-9.73,3.74A13.82,13.82,0,0,0,565.18,72a13.85,13.85,0,0,0,3.46,9.78q3.48,3.72,9.73,3.73a8.9,8.9,0,0,0,4.72-1.21,14.4,14.4,0,0,0,3.41-2.85l10.88,11.41a21,21,0,0,1-9.06,5.55,34.22,34.22,0,0,1-10,1.59,33.87,33.87,0,0,1-11.59-2,27.92,27.92,0,0,1-9.45-5.66A26.47,26.47,0,0,1,551,83.53,27.9,27.9,0,0,1,548.7,72,27.93,27.93,0,0,1,551,60.47a26.57,26.57,0,0,1,6.32-8.84A27.9,27.9,0,0,1,566.78,46a33.37,33.37,0,0,1,21.54-.38,20.87,20.87,0,0,1,9.06,5.54Z"/><path class="cls-1" d="M623.86,20V52.69h.22A10.13,10.13,0,0,1,626,49.6a14.59,14.59,0,0,1,3.19-2.75,17.07,17.07,0,0,1,4.39-2,18.54,18.54,0,0,1,5.49-.78A22.7,22.7,0,0,1,649.13,46a14.63,14.63,0,0,1,6,5.35,21.54,21.54,0,0,1,2.91,8,61.63,61.63,0,0,1,.77,10v30.5H642.32V72.75c0-1.55-.06-3.14-.16-4.8a15.48,15.48,0,0,0-1-4.57A8,8,0,0,0,638.64,60a7.86,7.86,0,0,0-4.89-1.32,10,10,0,0,0-5.16,1.16,7.89,7.89,0,0,0-3,3.09,12.7,12.7,0,0,0-1.37,4.34,37.71,37.71,0,0,0-.33,5.08V99.94H607.38V20Z"/><path class="cls-1" d="M668.8,44.08h15.82v8.4h.22A13.59,13.59,0,0,1,687,49.4a16.19,16.19,0,0,1,3.41-2.74,20.13,20.13,0,0,1,4.5-2,18.87,18.87,0,0,1,5.49-.77,22.7,22.7,0,0,1,10.11,1.93,14.64,14.64,0,0,1,6,5.32,21.44,21.44,0,0,1,2.91,8,61,61,0,0,1,.77,10V100H703.74V72.46c0-1.53-.06-3.12-.16-4.77a15,15,0,0,0-1-4.56,7.1,7.1,0,0,0-7.42-4.72A10.14,10.14,0,0,0,690,59.56a7.84,7.84,0,0,0-3,3.08A12.44,12.44,0,0,0,685.61,67a37.52,37.52,0,0,0-.33,5.06v28H668.8Z"/><path class="cls-1" d="M730.22,72a27.93,27.93,0,0,1,2.31-11.53,26.57,26.57,0,0,1,6.32-8.84A27.9,27.9,0,0,1,748.3,46a34.91,34.91,0,0,1,23.18,0,27.9,27.9,0,0,1,9.45,5.65,26.57,26.57,0,0,1,6.32,8.84A27.93,27.93,0,0,1,789.56,72a27.9,27.9,0,0,1-2.31,11.53,26.47,26.47,0,0,1-6.32,8.84A27.92,27.92,0,0,1,771.48,98a35.08,35.08,0,0,1-23.18,0,27.92,27.92,0,0,1-9.45-5.66,26.47,26.47,0,0,1-6.32-8.84A27.9,27.9,0,0,1,730.22,72Zm16.49,0a13.8,13.8,0,0,0,3.46,9.78q3.47,3.72,9.72,3.73t9.73-3.73A13.85,13.85,0,0,0,773.08,72a13.82,13.82,0,0,0-3.46-9.77q-3.47-3.73-9.73-3.74t-9.72,3.74A13.78,13.78,0,0,0,746.71,72Z"/><path class="cls-1" d="M799.56,20H816v80H799.56Z"/><path class="cls-1" d="M826,72a27.93,27.93,0,0,1,2.31-11.53,26.54,26.54,0,0,1,6.31-8.84A28,28,0,0,1,844.12,46a34.91,34.91,0,0,1,23.18,0,28,28,0,0,1,9.45,5.65,26.71,26.71,0,0,1,6.32,8.84A27.93,27.93,0,0,1,885.37,72a27.9,27.9,0,0,1-2.3,11.53,26.61,26.61,0,0,1-6.32,8.84A28,28,0,0,1,867.3,98a35.08,35.08,0,0,1-23.18,0,28.06,28.06,0,0,1-9.46-5.66,26.44,26.44,0,0,1-6.31-8.84A27.9,27.9,0,0,1,826,72Zm16.48,0A13.85,13.85,0,0,0,846,81.78q3.46,3.72,9.73,3.73t9.72-3.73A13.8,13.8,0,0,0,868.89,72a13.78,13.78,0,0,0-3.46-9.77q-3.45-3.73-9.72-3.74T846,62.23A13.82,13.82,0,0,0,842.52,72Z"/><path class="cls-1" d="M953.39,89.08c0,10.12-2.54,16.81-7.64,22.06S932.92,119,922.51,119a62.63,62.63,0,0,1-14.06-1.59,31.9,31.9,0,0,1-12.74-6.22l8.12-12.65c4.59,2.62,6.25,2.82,9.07,4.07a22.67,22.67,0,0,0,9.29,1.86q7.57,0,11.15-3.68c2.38-2.46,3.57-4.6,3.57-8.41v.05h-.22a15.54,15.54,0,0,1-7.08,5.44,22.56,22.56,0,0,1-8,1.6,27.42,27.42,0,0,1-10.77-2,23.85,23.85,0,0,1-8.3-5.72A25.69,25.69,0,0,1,897.24,83a33.07,33.07,0,0,1-.16-21.46,28.22,28.22,0,0,1,4.83-8.92,24.35,24.35,0,0,1,7.64-6.21A21.61,21.61,0,0,1,919.77,44a25.36,25.36,0,0,1,6.43.77,25.78,25.78,0,0,1,5.22,2,19.55,19.55,0,0,1,4,2.7A16.86,16.86,0,0,1,938,52.37h.22v-8h15.16ZM911.86,71.74a13,13,0,0,0,3.79,9.19,14.49,14.49,0,0,0,4.17,2.91,12.15,12.15,0,0,0,5.22,1.1,12.28,12.28,0,0,0,5.17-1.1,14.24,14.24,0,0,0,4.23-2.91,13,13,0,0,0,2.8-4.19,13.15,13.15,0,0,0,0-10,13,13,0,0,0-2.8-4.19,14.24,14.24,0,0,0-4.23-2.91,12.43,12.43,0,0,0-5.17-1.1,12.3,12.3,0,0,0-5.22,1.1,14.49,14.49,0,0,0-4.17,2.91,13,13,0,0,0-3.79,9.2Z"/><path class="cls-1" d="M963.39,44h16.48v56H963.39Z"/><path class="cls-1" d="M1042.06,89.46a26.32,26.32,0,0,1-10,7.8,30.07,30.07,0,0,1-12.52,2.74A33.83,33.83,0,0,1,1008,98a27.92,27.92,0,0,1-9.45-5.66,26.47,26.47,0,0,1-6.32-8.84A27.9,27.9,0,0,1,989.87,72a27.93,27.93,0,0,1,2.31-11.53,26.57,26.57,0,0,1,6.32-8.84A27.9,27.9,0,0,1,1008,46a33.6,33.6,0,0,1,11.59-2,26.31,26.31,0,0,1,10.38,2,21.59,21.59,0,0,1,7.91,5.65,26,26,0,0,1,5,8.84A36,36,0,0,1,1044.59,72v5.16h-38.24a13,13,0,0,0,4.29,7.52,12.08,12.08,0,0,0,8.13,2.8,12.38,12.38,0,0,0,6.87-1.81,18.45,18.45,0,0,0,4.89-4.66Zm-14-23.5a9.54,9.54,0,0,0-2.75-7.14,9.79,9.79,0,0,0-7.36-3,12.07,12.07,0,0,0-8.41,3.13,9.93,9.93,0,0,0-2.3,3.19,10.36,10.36,0,0,0-.94,3.78Z"/><path class="cls-1" d="M1087.85,61a11.58,11.58,0,0,0-9.51-4.5,8.9,8.9,0,0,0-4,1,3.5,3.5,0,0,0-2,3.4,3.05,3.05,0,0,0,2,2.91,27.34,27.34,0,0,0,5.14,1.65l6.68,1.53a25.12,25.12,0,0,1,6.67,2.59,14.86,14.86,0,0,1,5.14,4.77,14.29,14.29,0,0,1,2,8.07,15,15,0,0,1-2.24,8.51,17.12,17.12,0,0,1-5.75,5.38,24.5,24.5,0,0,1-7.88,2.86,46.43,46.43,0,0,1-8.64.82,41.71,41.71,0,0,1-11.27-1.59,21.06,21.06,0,0,1-9.63-5.66l10-11.09a16.46,16.46,0,0,0,5.09,4.34,13.65,13.65,0,0,0,6.51,1.48,15.15,15.15,0,0,0,5.14-.82,3,3,0,0,0,2.3-3,3.36,3.36,0,0,0-2-3.13,21.62,21.62,0,0,0-5.14-1.75l-6.67-1.54a27.81,27.81,0,0,1-6.68-2.47,14.1,14.1,0,0,1-5.14-4.67,14.27,14.27,0,0,1-2-8.07,16.29,16.29,0,0,1,1.91-8.13,16.92,16.92,0,0,1,5-5.6,21.71,21.71,0,0,1,7.17-3.23,32.53,32.53,0,0,1,8.2-1,38.21,38.21,0,0,1,10.62,1.54,19.61,19.61,0,0,1,9.08,5.49Z"/><path class="cls-1" d="M268.55,48.11c.89-.22,1.78-.4,2.67-.55a16.73,16.73,0,0,1,2.78-.23,24.8,24.8,0,0,1,10.11,2,23.26,23.26,0,0,1,7.78,5.44,24.45,24.45,0,0,1,5,8.17,28.42,28.42,0,0,1,1.78,10,25.67,25.67,0,0,1-8.5,19.56,28.15,28.15,0,0,1-9.34,5.5,35.2,35.2,0,0,1-23.05,0,28.07,28.07,0,0,1-9.28-5.5A25.67,25.67,0,0,1,240,73a35.53,35.53,0,0,1,.78-7.72,39.8,39.8,0,0,1,2.05-6.61,41.94,41.94,0,0,1,3-6q1.72-2.84,3.61-5.83L266.67,20H287ZM282,72.34a12,12,0,0,0-3.5-8.84,13.75,13.75,0,0,0-18.33,0,12,12,0,0,0-3.51,8.84,12,12,0,0,0,3.51,8.83,13.75,13.75,0,0,0,18.33,0A12,12,0,0,0,282,72.34Z"/><g class="cls-2"><path class="cls-1" d="M308.67,20h26.44a75.46,75.46,0,0,1,18.24,2.15,41.7,41.7,0,0,1,15.09,7,34.14,34.14,0,0,1,10.23,12.48q3.78,7.7,3.78,18.65a38.17,38.17,0,0,1-3.67,17.12,36.86,36.86,0,0,1-9.89,12.42,43.53,43.53,0,0,1-14.35,7.63,55.48,55.48,0,0,1-17.06,2.6H308.67Zm17.62,63.73h9.15a49.75,49.75,0,0,0,11.36-1.24,24.26,24.26,0,0,0,9.1-4.13,19.75,19.75,0,0,0,6-7.57,26.82,26.82,0,0,0,2.21-11.47,22.34,22.34,0,0,0-2.21-10.22A20.49,20.49,0,0,0,356,41.92a26.05,26.05,0,0,0-8.76-4.23,38.52,38.52,0,0,0-10.56-1.42h-10.4Z"/></g><path class="cls-1" d="M963.39,32a8.24,8.24,0,1,1,14.06,5.83A8.24,8.24,0,0,1,963.39,32Z"/><path class="cls-1" d="M264.89,140.71a10.19,10.19,0,0,0-8.95-4.45,13.69,13.69,0,0,0-3.6.48,10,10,0,0,0-3.16,1.49,7.34,7.34,0,0,0-2.26,2.58,7.79,7.79,0,0,0-.85,3.71,6.36,6.36,0,0,0,1.77,4.8,13.88,13.88,0,0,0,4.37,2.81,49.58,49.58,0,0,0,5.72,2,26.16,26.16,0,0,1,5.71,2.32,13.49,13.49,0,0,1,4.38,3.84,10.7,10.7,0,0,1,1.76,6.51,11.52,11.52,0,0,1-1.34,5.59,12.88,12.88,0,0,1-3.52,4.16,16.52,16.52,0,0,1-4.9,2.58,17.2,17.2,0,0,1-5.45.9,21,21,0,0,1-8.07-1.58,15.36,15.36,0,0,1-6.5-5.19l4.31-3a11.16,11.16,0,0,0,4.17,4,12.57,12.57,0,0,0,6.31,1.51,11.64,11.64,0,0,0,3.52-.55,10.15,10.15,0,0,0,3.16-1.61,9,9,0,0,0,2.31-2.61,6.85,6.85,0,0,0,.91-3.55,7.29,7.29,0,0,0-1-4,8.77,8.77,0,0,0-2.68-2.64,17.45,17.45,0,0,0-3.79-1.78q-2.11-.71-4.38-1.41c-1.5-.48-3-1-4.37-1.62a15.13,15.13,0,0,1-3.79-2.29,10.46,10.46,0,0,1-2.68-3.48,12.45,12.45,0,0,1,3.66-15.07,14.21,14.21,0,0,1,4.8-2.38,19.53,19.53,0,0,1,5.49-.78,19.74,19.74,0,0,1,7.12,1.23,15.23,15.23,0,0,1,5.94,4.32Z"/><path class="cls-1" d="M278.1,157.25c0-1.08,0-2.17-.1-3.25s-.13-2.81-.22-3.9h4.5v5.09h.12a9.81,9.81,0,0,1,4.21-3.88A12.15,12.15,0,0,1,292,150a13.92,13.92,0,0,1,2.56.25,9.27,9.27,0,0,1,2.62.91,8.62,8.62,0,0,1,2.38,1.84,9.68,9.68,0,0,1,1.86,3.06,9.8,9.8,0,0,1,4-4.44,11.17,11.17,0,0,1,5.73-1.62c3.79,0,6.6,1,8.41,3s2.73,4.8,2.73,8.47V180h-4.18V162.94a12.35,12.35,0,0,0-1.58-6.82q-1.59-2.37-5.89-2.37a7.71,7.71,0,0,0-3.92.91,7.28,7.28,0,0,0-2.56,2.4,10.52,10.52,0,0,0-1.43,3.41,17.76,17.76,0,0,0-.44,4V180h-4.18V162.94a12.27,12.27,0,0,0-1.58-6.82q-1.58-2.37-5.88-2.37a12.3,12.3,0,0,0-1.74.25,6.47,6.47,0,0,0-2.82,1.38,9.9,9.9,0,0,0-2.62,3.37,13.62,13.62,0,0,0-1.17,6.25v15H278.1Z"/><path class="cls-1" d="M350.26,161.77V161q0-7.38-7.4-7.38A12.87,12.87,0,0,0,334,157l-2.47-2.87q4.08-4.14,12.22-4.14a13.38,13.38,0,0,1,4.05.61,8.9,8.9,0,0,1,5.64,5,10.7,10.7,0,0,1,.87,4.51v12.74q0,1.65.15,3.45c.11,1.2.22,2.88.34,3.65h-3.95c-.12-.7-.21-2.13-.28-3s-.09-1.61-.09-2.38h-.12a11,11,0,0,1-4.23,4.12,13,13,0,0,1-6,1.25,13.44,13.44,0,0,1-3.7-.52,9.5,9.5,0,0,1-3.18-1.59,7.91,7.91,0,0,1-2.22-2.62,7.51,7.51,0,0,1-.83-3.63,7.72,7.72,0,0,1,1.82-5.45,11.12,11.12,0,0,1,4.56-3,22.76,22.76,0,0,1,5.87-1.22c2.08-.16,4-.24,5.71-.24Zm-2.09,3.29c-1,0-2.32.05-3.86.15a23.1,23.1,0,0,0-4.45.73,9.94,9.94,0,0,0-3.64,1.8,4.08,4.08,0,0,0-1.51,3.36,4.73,4.73,0,0,0,.59,2.41,4.83,4.83,0,0,0,1.57,1.64,6.64,6.64,0,0,0,2.19.91,10.56,10.56,0,0,0,2.44.28,9.36,9.36,0,0,0,3.86-.73,8.15,8.15,0,0,0,2.75-2,8,8,0,0,0,1.63-2.93,11.9,11.9,0,0,0,.52-3.57v-2.07Z"/><path class="cls-1" d="M363.09,159.87c0-1.29,0-2.6-.1-3.93s-.11-3.5-.16-5.62H367v5.87h.12a9.09,9.09,0,0,1,1.27-2.29,10,10,0,0,1,2-2,10.13,10.13,0,0,1,2.72-1.41,11,11,0,0,1,3.51-.53,11.51,11.51,0,0,1,3.11.38l-.83,4.06a7,7,0,0,0-2.4-.32,8.73,8.73,0,0,0-4.12.91,9.36,9.36,0,0,0-2.84,2.31,9.59,9.59,0,0,0-1.68,3,9.85,9.85,0,0,0-.54,3.12V180h-4.17Z"/><path class="cls-1" d="M400.33,153.82H392v17a9.66,9.66,0,0,0,.31,2.71,3.78,3.78,0,0,0,.88,1.62,2.92,2.92,0,0,0,1.34.8,6.17,6.17,0,0,0,1.72.23,7.76,7.76,0,0,0,2.19-.33,7,7,0,0,0,1.75-.82l.18,3.89A11.61,11.61,0,0,1,395.1,180a10.41,10.41,0,0,1-2.47-.32,5.83,5.83,0,0,1-2.34-1.21,6.69,6.69,0,0,1-1.75-2.42,9.88,9.88,0,0,1-.69-4V153.82h-6.18V150h6.18v-9H392v9h8.35Z"/><path class="cls-3" d="M429.24,132h6.59L429,180h-6.59Z"/><path class="cls-3" d="M469.41,179.83h-5.7l.63-4.83h-.12a13.79,13.79,0,0,1-5.06,3.69,15.35,15.35,0,0,1-6.08,1.31,15,15,0,0,1-6.14-1.19,11.32,11.32,0,0,1-4.33-3.31,12.75,12.75,0,0,1-2.37-4.94,15.42,15.42,0,0,1-.19-6.13,18,18,0,0,1,2-6.15,18.72,18.72,0,0,1,3.79-4.94,17,17,0,0,1,5.26-3.28,17.25,17.25,0,0,1,6.45-1.19,12.6,12.6,0,0,1,5.85,1.35,8.9,8.9,0,0,1,3.89,3.65h.13l3.1-21.87h5.69Zm-14.87-5.08a11.09,11.09,0,0,0,4.2-.78,11,11,0,0,0,3.39-2.13,11.43,11.43,0,0,0,2.43-3.25,12.8,12.8,0,0,0,1.3-4.16,11.92,11.92,0,0,0-.09-4.15,7.58,7.58,0,0,0-1.52-3.25,7.86,7.86,0,0,0-2.82-2.13,9.48,9.48,0,0,0-4-.78,11.14,11.14,0,0,0-4.21.78,11.54,11.54,0,0,0-3.42,2.13,10.86,10.86,0,0,0-2.43,3.25,13.29,13.29,0,0,0-1.27,4.15,11.73,11.73,0,0,0,.1,4.16,7.72,7.72,0,0,0,1.48,3.25,7.43,7.43,0,0,0,2.82,2.13A9.74,9.74,0,0,0,454.54,174.75Z"/><path class="cls-3" d="M485.87,167a6.72,6.72,0,0,0,.37,3.4A7,7,0,0,0,488,173a8.56,8.56,0,0,0,2.88,1.69,10.59,10.59,0,0,0,3.58.6,9.14,9.14,0,0,0,4.62-1.17,18.3,18.3,0,0,0,3.94-3.11l3.66,3.14a17.67,17.67,0,0,1-13.6,5.84,14.63,14.63,0,0,1-6-1.15,11.13,11.13,0,0,1-4.24-3.16,11.91,11.91,0,0,1-2.32-4.76,15.19,15.19,0,0,1-.18-5.93,16.5,16.5,0,0,1,1.95-5.94,18,18,0,0,1,3.81-4.75,17.3,17.3,0,0,1,5.19-3.16,16.36,16.36,0,0,1,6.12-1.15,13.35,13.35,0,0,1,6.32,1.32,10.52,10.52,0,0,1,3.87,3.47,11.62,11.62,0,0,1,1.77,4.82,20.72,20.72,0,0,1,0,5.45L509.1,167Zm18.05-4.34a10.88,10.88,0,0,0-.13-3.31,6.25,6.25,0,0,0-1.16-2.62,5.67,5.67,0,0,0-2.34-1.75,9,9,0,0,0-3.56-.63,9.65,9.65,0,0,0-3.8.75,11.73,11.73,0,0,0-3.17,2,10.66,10.66,0,0,0-2.24,2.68,7.74,7.74,0,0,0-1,2.92Z"/><path class="cls-3" d="M517.66,154.21a18.48,18.48,0,0,1,5.82-3.15,19.77,19.77,0,0,1,6.25-1.06,16.12,16.12,0,0,1,5.37.78,9.13,9.13,0,0,1,3.48,2.11,6.64,6.64,0,0,1,1.7,3,9.56,9.56,0,0,1,.19,3.59l-2.08,14.57c-.16,1-.28,1.93-.36,2.77s-.13,2.21-.13,3H533c0-.72.1-2,.16-2.72s.15-1.45.27-2.17h-.12a13,13,0,0,1-4.91,3.91,14.74,14.74,0,0,1-5.94,1.15,12.18,12.18,0,0,1-3.75-.55,7.79,7.79,0,0,1-3-1.62,6.46,6.46,0,0,1-1.8-2.68,7.56,7.56,0,0,1-.28-3.7,9,9,0,0,1,1.9-4.64,11.56,11.56,0,0,1,3.87-3.05,19,19,0,0,1,5.3-1.68,36.87,36.87,0,0,1,6.25-.51h4l.18-1.21a5.31,5.31,0,0,0-.09-2.17,4.84,4.84,0,0,0-3-3.34,7.75,7.75,0,0,0-3-.51,12.17,12.17,0,0,0-2.83.3,12.74,12.74,0,0,0-2.26.75,11.61,11.61,0,0,0-1.89,1.06q-.88.6-1.74,1.14Zm13.89,11.33a40.38,40.38,0,0,0-4,.21,18.06,18.06,0,0,0-3.86.81,8.92,8.92,0,0,0-3,1.69,4.52,4.52,0,0,0-1.47,2.77,3.41,3.41,0,0,0,1.17,3.56,7.6,7.6,0,0,0,4.41,1.08,9.62,9.62,0,0,0,3.94-.75,9,9,0,0,0,4.66-4.64,10.61,10.61,0,0,0,.82-2.92l.31-1.81Z"/><path class="cls-3" d="M564.74,157.89a6.88,6.88,0,0,0-2.1-2,6.4,6.4,0,0,0-3.39-.81,7.5,7.5,0,0,0-3.51.81,3,3,0,0,0-1.74,2.38,2.4,2.4,0,0,0,.53,2.05,5.28,5.28,0,0,0,1.76,1.27,10.38,10.38,0,0,0,2.29.72l2.14.42a21.81,21.81,0,0,1,3.17,1,7.83,7.83,0,0,1,2.47,1.56,5.39,5.39,0,0,1,1.43,2.35A8.27,8.27,0,0,1,568,171a9.38,9.38,0,0,1-1.61,4.13,10.29,10.29,0,0,1-3.08,2.8,14,14,0,0,1-4,1.57,19.89,19.89,0,0,1-4.3.48,15.33,15.33,0,0,1-6.12-1.09,9.47,9.47,0,0,1-4.31-4l4.58-3.37a13.51,13.51,0,0,0,2.69,2.34,6.86,6.86,0,0,0,3.92,1,9.89,9.89,0,0,0,4.11-.88,3.55,3.55,0,0,0,2.27-2.74,2.44,2.44,0,0,0-.46-2A4.35,4.35,0,0,0,560,168.1a11.58,11.58,0,0,0-2.2-.72l-2-.45c-1.15-.29-2.23-.61-3.25-1a8.62,8.62,0,0,1-2.63-1.44,5.39,5.39,0,0,1-1.63-2.29,6.89,6.89,0,0,1-.21-3.43,8.4,8.4,0,0,1,1.5-3.89,10.33,10.33,0,0,1,2.89-2.74,13.35,13.35,0,0,1,3.78-1.63,16.19,16.19,0,0,1,4.09-.54,13.7,13.7,0,0,1,5.45,1.08,7.2,7.2,0,0,1,3.75,3.62Z"/><g class="cls-2"><path class="cls-1" d="M578.71,184h-4.22l4.76-15h5.18Z"/></g><path class="cls-1" d="M607.38,132h15.87a28.15,28.15,0,0,1,9,1.5,24.66,24.66,0,0,1,8.11,4.5,22.84,22.84,0,0,1,5.84,7.53,25.79,25.79,0,0,1,0,21,23,23,0,0,1-5.84,7.49,24.68,24.68,0,0,1-8.11,4.51,28.42,28.42,0,0,1-9,1.49H607.38Zm4.86,43.52h9.46a24.89,24.89,0,0,0,9.49-1.65,19.56,19.56,0,0,0,6.68-4.41,17.48,17.48,0,0,0,4-6.24,21,21,0,0,0,0-14.44,17.48,17.48,0,0,0-4-6.24,19.54,19.54,0,0,0-6.68-4.4,24.7,24.7,0,0,0-9.49-1.66h-9.46Z"/><path class="cls-1" d="M660.91,166.1a12.17,12.17,0,0,0,1,4,10.59,10.59,0,0,0,2.29,3.26,10.79,10.79,0,0,0,3.27,2.17,10.07,10.07,0,0,0,4,.79,10.42,10.42,0,0,0,5.65-1.49,11.46,11.46,0,0,0,3.62-3.45l3.14,2.56a15.64,15.64,0,0,1-5.71,4.64,16.18,16.18,0,0,1-6.7,1.4,15.53,15.53,0,0,1-5.95-1.13,13.89,13.89,0,0,1-4.72-3.14,14.79,14.79,0,0,1-3.12-4.76,15.38,15.38,0,0,1-1.14-6,15.79,15.79,0,0,1,1.11-6,14.35,14.35,0,0,1,3.09-4.75,14.07,14.07,0,0,1,4.62-3.14,14.59,14.59,0,0,1,5.74-1.13,14.14,14.14,0,0,1,5.87,1.16,12.73,12.73,0,0,1,7,7.59,16.2,16.2,0,0,1,.93,5.52v1.83Zm19.63-3.3a9.09,9.09,0,0,0-2.47-6.61,9.21,9.21,0,0,0-6.92-2.53,9.9,9.9,0,0,0-3.82.76,10.75,10.75,0,0,0-3.24,2,10.22,10.22,0,0,0-2.23,2.93,7.52,7.52,0,0,0-.83,3.41Z"/><path class="cls-1" d="M697.22,180H693V132h4.24Z"/><path class="cls-1" d="M710.51,180h-4.29V150h4.29Z"/><path class="cls-1" d="M711.47,141a2.91,2.91,0,0,1-1,2.25,3.08,3.08,0,0,1-4.29,0,2.91,2.91,0,0,1-1-2.25,2.87,2.87,0,0,1,1-2.24,3.05,3.05,0,0,1,4.29,0A2.87,2.87,0,0,1,711.47,141Z"/><path class="cls-1" d="M736.6,180h-4.8l-12.33-30h5.06l9.74,25.26h.13L744.07,150h4.86Z"/><path class="cls-1" d="M761.26,166.1a12.17,12.17,0,0,0,1,4,10.68,10.68,0,0,0,5.56,5.43,10,10,0,0,0,4,.79,10.47,10.47,0,0,0,5.65-1.49,11.31,11.31,0,0,0,3.61-3.45l3.15,2.56a15.64,15.64,0,0,1-5.71,4.64,16.22,16.22,0,0,1-6.7,1.4,15.49,15.49,0,0,1-6-1.13,14,14,0,0,1-4.73-3.14,15.12,15.12,0,0,1-3.12-4.76,15.38,15.38,0,0,1-1.14-6,15.6,15.6,0,0,1,1.12-6,14.18,14.18,0,0,1,7.71-7.89A14.59,14.59,0,0,1,771.5,150a14.06,14.06,0,0,1,5.86,1.16,12.71,12.71,0,0,1,7,7.59,16.2,16.2,0,0,1,.93,5.52v1.83Zm19.62-3.3a9.05,9.05,0,0,0-2.47-6.61,9.18,9.18,0,0,0-6.91-2.53,9.86,9.86,0,0,0-3.82.76,10.92,10.92,0,0,0-3.25,2,10.37,10.37,0,0,0-2.22,2.93,7.52,7.52,0,0,0-.83,3.41Z"/><path class="cls-1" d="M793.58,159.87c0-1.29,0-2.6-.1-3.93s-.11-3.78-.15-5.91h4.11v6.16h.13a8.75,8.75,0,0,1,1.26-2.29,9.78,9.78,0,0,1,4.72-3.37,10.88,10.88,0,0,1,3.51-.53,11.48,11.48,0,0,1,3.1.38l-.82,4.06a7.09,7.09,0,0,0-2.41-.32,8.69,8.69,0,0,0-4.11.91,9.27,9.27,0,0,0-4.52,5.35,9.58,9.58,0,0,0-.54,3.12V180h-4.18Z"/><path class="cls-1" d="M822.48,166.1a12.18,12.18,0,0,0,1,4,10.56,10.56,0,0,0,2.28,3.26,10.79,10.79,0,0,0,3.27,2.17,10.12,10.12,0,0,0,4,.79,10.41,10.41,0,0,0,5.64-1.49,11.35,11.35,0,0,0,3.62-3.45L845.5,174a15.64,15.64,0,0,1-5.71,4.64,16.17,16.17,0,0,1-6.69,1.4,15.54,15.54,0,0,1-6-1.13,13.89,13.89,0,0,1-4.72-3.14A14.79,14.79,0,0,1,819.3,171a15.38,15.38,0,0,1-1.14-6,15.79,15.79,0,0,1,1.11-6,14.35,14.35,0,0,1,3.09-4.75,14.07,14.07,0,0,1,4.62-3.14,14.59,14.59,0,0,1,5.74-1.13,14.11,14.11,0,0,1,5.87,1.16,12.93,12.93,0,0,1,4.35,3.08,13.21,13.21,0,0,1,2.69,4.51,16.19,16.19,0,0,1,.92,5.52v1.83Zm19.63-3.3a9.09,9.09,0,0,0-2.47-6.61,9.21,9.21,0,0,0-6.92-2.53,9.9,9.9,0,0,0-3.82.76,10.87,10.87,0,0,0-3.24,2,10,10,0,0,0-2.22,2.93,7.4,7.4,0,0,0-.83,3.41Z"/><path class="cls-1" d="M885.37,179.92H881.3v-5.36h-.12a10.81,10.81,0,0,1-2.35,2.51,14.88,14.88,0,0,1-2.84,1.71,14,14,0,0,1-3.06,1,16.09,16.09,0,0,1-3,.31,16.53,16.53,0,0,1-6.2-1.14,14.36,14.36,0,0,1-4.86-3.15,14.77,14.77,0,0,1-3.18-4.77,16.36,16.36,0,0,1,0-12,14.77,14.77,0,0,1,3.18-4.77,14.36,14.36,0,0,1,4.86-3.15,16.53,16.53,0,0,1,6.2-1.13,16,16,0,0,1,3,.3,14,14,0,0,1,3.06,1,14.44,14.44,0,0,1,2.84,1.72,10.42,10.42,0,0,1,2.35,2.51h.12v-23.4h4.07Zm-26.26-15.27a13,13,0,0,0,.79,4.57,10.83,10.83,0,0,0,2.24,3.7,10.69,10.69,0,0,0,3.51,2.48,11.53,11.53,0,0,0,4.66.9,12.27,12.27,0,0,0,4.71-.9,11.78,11.78,0,0,0,3.76-2.48,11.07,11.07,0,0,0,2.47-3.7,12.33,12.33,0,0,0,0-9.15,11,11,0,0,0-2.47-3.69A11.62,11.62,0,0,0,875,153.9a12.27,12.27,0,0,0-4.71-.91,11.53,11.53,0,0,0-4.66.91,10.54,10.54,0,0,0-3.51,2.48,10.78,10.78,0,0,0-2.24,3.69A13,13,0,0,0,859.11,164.65Z"/><path class="cls-4" d="M145.05,154.81c-14.32,7.21-20.35-1.08-20.37-1.1a15.46,15.46,0,0,1-4.25-10.57V56.86a25,25,0,0,0-25,25v58.2C107.46,165.46,133,162.73,145.05,154.81Z"/><path class="cls-5" d="M174.69,36.9c-32.06-23.18-81.57-12-110.6,25C48.28,82,41.84,105.64,44.4,126.73,43.6,104.83,54.45,80.14,75,62.07c31.08-27.33,72.55-29.18,92.62-4.14,14.18,17.7,14,44.25,1.63,67.83a92.26,92.26,0,0,1-19.45,25.12,34.46,34.46,0,0,1-4.77,3h0c-8,4.75-16.81,6.69-25.3,5.07-16.82-3-23.38-17.89-24.32-19.85v7.73h0c0,.09,0,.18,0,.27a40,40,0,0,0,13.45,30c.35.33.72.64,1.08.94l.11.09c.32.27.66.53,1,.78,11,8.26,25.53,7.41,37.94.24,9.05-5.23,16.75-12.42,25.4-23l.85-1C209.9,110.29,206.74,60.08,174.69,36.9Z"/><path class="cls-6" d="M100.44,180.51C89,181.73,64.27,179,47.64,167a70.45,70.45,0,0,1-17.78-19.19c-16.22-25.84-7.69-55.38-4.59-64.3,9-29.17,31-48.28,39.47-54.52,9.6-7.06,29.11-18.5,54.22-20.46C150.16,7,167.39,19.37,175.33,24,154.13,3.49,131.27.36,117.05.07,89-1,68.55,9.93,57.65,16.47,53,19.28,28.84,34.15,13.94,62.52A112.5,112.5,0,0,0,2.57,92.45c-1.84,8.44-7.65,37.11,8.17,65.2a82.49,82.49,0,0,0,22.15,25.63,88.77,88.77,0,0,0,31.76,14.63c30.37,5.78,51.86-1.9,60.26-5.44C120.16,192.35,111,191.83,100.44,180.51Z"/><g class="cls-7"><path class="cls-8" d="M124.68,153.72a15.24,15.24,0,0,1-2.85-4.25,28.54,28.54,0,0,1-26.4-10.12v.72c12,25.4,37.51,21.91,49.57,14C132,162.46,124.7,153.74,124.68,153.72Z"/></g></g></g></svg>